name C:\Users\r0593348\3dpredictsim\Results\Batchsim_tmt_linear\Pog_s1_tmt_aCst_d02_k1000_ig24.mot
datacolumns 128
datarows 4
range 0.00000000 0.03220634
endheader
time	pelvis_tilt	pelvis_list	pelvis_rotation	pelvis_tx	pelvis_ty	pelvis_tz	hip_flexion_l	hip_adduction_l	hip_rotation_l	hip_flexion_r	hip_adduction_r	hip_rotation_r	knee_angle_l	knee_angle_r	ankle_angle_l	ankle_angle_r	subtalar_angle_l	subtalar_angle_r	tmt_angle_l	tmt_angle_r	mtp_angle_l	mtp_angle_r	lumbar_extension	lumbar_bending	lumbar_rotation	arm_flex_l	arm_add_l	arm_rot_l	arm_flex_r	arm_add_r	arm_rot_r	elbow_flex_l	elbow_flex_r	pro_sup_l	pro_sup_r	glut_med1_l/activation	glut_med2_l/activation	glut_med3_l/activation	glut_min1_l/activation	glut_min2_l/activation	glut_min3_l/activation	semimem_l/activation	semiten_l/activation	bifemlh_l/activation	bifemsh_l/activation	sar_l/activation	add_long_l/activation	add_brev_l/activation	add_mag1_l/activation	add_mag2_l/activation	add_mag3_l/activation	tfl_l/activation	pect_l/activation	grac_l/activation	glut_max1_l/activation	glut_max2_l/activation	glut_max3_l/activation	iliacus_l/activation	psoas_l/activation	quad_fem_l/activation	gem_l/activation	peri_l/activation	rect_fem_l/activation	vas_med_l/activation	vas_int_l/activation	vas_lat_l/activation	med_gas_l/activation	lat_gas_l/activation	soleus_l/activation	tib_post_l/activation	flex_dig_l/activation	flex_hal_l/activation	tib_ant_l/activation	per_brev_l/activation	per_long_l/activation	per_tert_l/activation	ext_dig_l/activation	ext_hal_l/activation	ercspn_l/activation	intobl_l/activation	extobl_l/activation	glut_med1_r/activation	glut_med2_r/activation	glut_med3_r/activation	glut_min1_r/activation	glut_min2_r/activation	glut_min3_r/activation	semimem_r/activation	semiten_r/activation	bifemlh_r/activation	bifemsh_r/activation	sar_r/activation	add_long_r/activation	add_brev_r/activation	add_mag1_r/activation	add_mag2_r/activation	add_mag3_r/activation	tfl_r/activation	pect_r/activation	grac_r/activation	glut_max1_r/activation	glut_max2_r/activation	glut_max3_r/activation	iliacus_r/activation	psoas_r/activation	quad_fem_r/activation	gem_r/activation	peri_r/activation	rect_fem_r/activation	vas_med_r/activation	vas_int_r/activation	vas_lat_r/activation	med_gas_r/activation	lat_gas_r/activation	soleus_r/activation	tib_post_r/activation	flex_dig_r/activation	flex_hal_r/activation	tib_ant_r/activation	per_brev_r/activation	per_long_r/activation	per_tert_r/activation	ext_dig_r/activation	ext_hal_r/activation	ercspn_r/activation	intobl_r/activation	extobl_r/activation	
          0.00000000	         -2.92918911	         -2.09908394	          5.28956714	          0.00000000	          0.85861784	         -0.00201121	        -17.93046753	         -1.65319988	          7.14244766	         31.71657894	          3.01591357	         -2.11998571	         -7.34659348	        -15.83914465	          0.52704003	          6.27364867	         11.46975124	         -1.44155483	          1.01690195	          0.03601039	         21.51301005	         -0.11776109	         -2.05898014	          0.58231177	         -1.84164810	          6.55742167	        -13.45409578	         15.98402708	         -8.33684394	        -13.50895416	          5.92049706	         36.57197248	         15.36081016	         86.51662706	         86.51662706	          0.30435173	          0.10494362	          0.07733429	          0.34258939	          0.22352033	          0.10973024	          0.05000083	          0.05000007	          0.05000005	          0.07952771	          0.11182329	          0.05858393	          0.05000019	          0.05000016	          0.05000034	          0.05000027	          0.31113257	          0.05000114	          0.05000017	          0.05000083	          0.05000067	          0.05000046	          0.34493383	          0.57888079	          0.05000004	          0.05000014	          0.05000008	          0.18657635	          0.06545088	          0.05000311	          0.05001050	          0.31273990	          0.42174649	          0.29632829	          0.26558807	          0.27311940	          0.35543815	          0.05000000	          0.06700148	          0.17698968	          0.05000007	          0.05000001	          0.05000004	          0.05000000	          0.05000000	          0.05000000	          0.05000007	          0.05000007	          0.05000012	          0.05000008	          0.05000009	          0.05000022	          0.05894616	          0.05894613	          0.15348507	          0.05000019	          0.05000051	          0.10247895	          0.16057135	          0.20204230	          0.16674224	          0.10526100	          0.05894605	          0.05684187	          0.05894644	          0.05000000	          0.06949292	          0.10543023	          0.05000027	          0.05000090	          0.22289007	          0.05153751	          0.05000052	          0.05000045	          0.12429946	          0.12914068	          0.10688366	          0.05894617	          0.05327265	          0.05894619	          0.05000001	          0.05000031	          0.05000047	          0.50579054	          0.35186726	          0.20216728	          0.26849580	          0.56129275	          0.22623395	          0.06612606	          0.10416065	          0.10588818	
          0.01073545	         -2.92333041	         -2.20124094	          5.55890481	          0.01610424	          0.85756080	         -0.00180708	        -17.71068868	         -1.95018015	          6.91649779	         31.08858022	          3.40752921	         -1.92082496	         -9.42084242	        -15.67666385	         -0.30901859	          5.71341393	         12.43258200	         -1.92207213	          0.96609039	          0.04272765	         22.55511641	         -0.10293443	         -1.86869857	          0.82106798	         -1.91677070	          6.36328026	        -13.46449012	         16.21187734	         -9.31749849	        -13.50753771	          5.75688806	         37.67700364	         15.17854472	         86.51662706	         86.51662706	          0.25816060	          0.08901644	          0.06559743	          0.29059499	          0.18959690	          0.09307661	          0.05000205	          0.05000022	          0.05000045	          0.06745788	          0.09485207	          0.14641386	          0.10313425	          0.06949311	          0.05002959	          0.05000563	          0.26391235	          0.09429224	          0.05926488	          0.05000081	          0.05000057	          0.05000064	          0.29258359	          0.51364491	          0.05011654	          0.06350333	          0.05894628	          0.15825987	          0.12318879	          0.15825846	          0.14126619	          0.26527568	          0.35773846	          0.25135485	          0.22528010	          0.23166851	          0.30149377	          0.05000000	          0.05683276	          0.15012850	          0.05000003	          0.05000000	          0.05000004	          0.05000002	          0.06949310	          0.05000001	          0.05000030	          0.05000029	          0.05000011	          0.05000032	          0.05000030	          0.05000017	          0.05000001	          0.05000003	          0.13019084	          0.05000003	          0.05000066	          0.08692591	          0.13620166	          0.28705570	          0.20113815	          0.09166739	          0.05000007	          0.05000068	          0.05000029	          0.05894616	          0.05894624	          0.11483198	          0.05000007	          0.05000016	          0.53793015	          0.12476536	          0.09280469	          0.06949314	          0.22288803	          0.22672008	          0.19264986	          0.05000000	          0.05000000	          0.05000000	          0.05203253	          0.06949296	          0.05350729	          0.57916665	          0.34005953	          0.21346114	          0.45237323	          0.59301398	          0.21586878	          0.05609018	          0.08835229	          0.08981764	
          0.02147089	         -2.91337460	         -2.30299661	          5.80451534	          0.03249490	          0.85647231	         -0.00162081	        -17.41853727	         -2.23806231	          6.67870238	         30.30527708	          3.73593528	         -1.64826116	        -11.62043461	        -15.98973292	         -1.30245263	          5.16969212	         13.33374161	         -2.43162894	          0.89943313	         -0.03224497	         23.43239163	         -0.15357724	         -1.65708964	          1.06563586	         -1.98143790	          6.08863225	        -13.47441950	         16.37523501	        -10.31555036	        -13.51161931	          5.64163273	         38.75147825	         15.03650519	         86.51662706	         86.51662706	          0.36482019	          0.07550651	          0.05564181	          0.24649177	          0.16082199	          0.07895048	          0.05000080	          0.05000018	          0.05000016	          0.05721988	          0.08045656	          0.15207026	          0.17862754	          0.05894653	          0.05894610	          0.05894561	          0.22385885	          0.08221286	          0.05308380	          0.05025065	          0.05484245	          0.05894582	          0.24817851	          0.48298238	          0.05894614	          0.05386564	          0.05000008	          0.13424094	          0.10449338	          0.13423988	          0.11982649	          0.22501507	          0.30344486	          0.21320698	          0.19108959	          0.19650847	          0.25573640	          0.05000000	          0.05000021	          0.19847107	          0.05000002	          0.05000002	          0.05000004	          0.05920367	          0.05894620	          0.05033156	          0.29905969	          0.05000004	          0.32517252	          0.05000016	          0.05000011	          0.28257378	          0.08866212	          0.05000030	          0.13289117	          0.05000006	          0.05000021	          0.08192723	          0.21001443	          0.24348965	          0.17061204	          0.12719028	          0.05000025	          0.06947803	          0.13753200	          0.05000004	          0.05000006	          0.09740410	          0.05894613	          0.05000075	          0.45628905	          0.10582988	          0.17891643	          0.05894624	          0.18906056	          0.19231102	          0.16341160	          0.05894620	          0.05894620	          0.05894619	          0.05894616	          0.05894616	          0.05894619	          0.49126715	          0.34098107	          0.18106440	          0.38371737	          0.62101487	          0.18310661	          0.05000001	          0.09658691	          0.07618611	
          0.03220634	         -2.90108748	         -2.40333663	          6.01897327	          0.04899538	          0.85536394	         -0.00142425	        -17.02566857	         -2.51303454	          6.43802563	         29.38578448	          4.02547688	         -1.36720223	        -13.97611325	        -16.30481576	         -2.41461697	          4.79759035	         14.16428428	         -2.95552780	          0.80978952	         -0.01799694	         24.05414067	         -0.15791019	         -1.44186625	          1.31265342	         -2.03648065	          5.76126033	        -13.48926390	         16.49101712	        -11.28413810	        -13.51969913	          5.59411841	         39.78007154	         14.90182025	         86.51662706	         86.51662706	          0.30945191	          0.06404697	          0.05000001	          0.32026732	          0.13641423	          0.06696826	          0.06796321	          0.05000004	          0.05000003	          0.05000005	          0.06824604	          0.15569335	          0.15151751	          0.05000034	          0.05000034	          0.05000016	          0.20766538	          0.06973609	          0.05000012	          0.05000027	          0.05000017	          0.05000013	          0.21051273	          0.43679819	          0.05000001	          0.05000009	          0.05000005	          0.11386735	          0.09309773	          0.11386710	          0.11386717	          0.19086476	          0.25739135	          0.18084878	          0.16208813	          0.16668462	          0.21692358	          0.09867293	          0.14431980	          0.16834947	          0.05000055	          0.16611592	          0.05000035	          0.09163856	          0.05000000	          0.05000000	          0.34699305	          0.30453518	          0.38359959	          0.18733348	          0.17761688	          0.23968797	          0.07520602	          0.11744505	          0.11272244	          0.08192673	          0.05000071	          0.06949324	          0.17814077	          0.20653560	          0.15557232	          0.15653309	          0.05000008	          0.05893356	          0.11665930	          0.23125869	          0.17334343	          0.13954741	          0.05000003	          0.05000003	          0.38703855	          0.08976828	          0.15176258	          0.05000003	          0.16036726	          0.23048895	          0.16274317	          0.05000001	          0.05000002	          0.05000000	          0.05000000	          0.05000009	          0.05000005	          0.61653915	          0.36508170	          0.18337283	          0.64079736	          0.66629519	          0.33646566	          0.07541358	          0.08192802	          0.06462343	
